<mxfile host="app.diagrams.net" modified="2020-11-24T11:03:38.867Z" agent="5.0 (Windows NT 10.0; Win64; x64) AppleWebKit/537.36 (KHTML, like Gecko) Chrome/87.0.4280.66 Safari/537.36" etag="d-2ZvUKFmN-rN5yibXrF" version="13.10.1" type="github">
  <diagram name="Page-1" id="197159a0-c6a4-9194-75a8-e4174976684c">
    <mxGraphModel dx="782" dy="437" grid="1" gridSize="10" guides="1" tooltips="1" connect="1" arrows="1" fold="1" page="1" pageScale="1.5" pageWidth="1169" pageHeight="826" background="none" math="0" shadow="0">
      <root>
        <mxCell id="0" style=";html=1;" />
        <mxCell id="1" style=";html=1;" parent="0" />
        <mxCell id="1257a543d1cacc4b-45" value="" style="whiteSpace=wrap;html=1;fillColor=#dae8fc;fontSize=14;strokeColor=none;verticalAlign=bottom;" parent="1" vertex="1">
          <mxGeometry x="230" y="770" width="600" height="260" as="geometry" />
        </mxCell>
        <mxCell id="1257a543d1cacc4b-43" value="" style="whiteSpace=wrap;html=1;fillColor=#dae8fc;fontSize=14;strokeColor=none;verticalAlign=top;" parent="1" vertex="1">
          <mxGeometry x="230" y="307" width="600" height="453" as="geometry" />
        </mxCell>
        <mxCell id="ElLBElQEtRB0eHO3DKkr-1" value="" style="whiteSpace=wrap;html=1;fillColor=#dae8fc;fontSize=14;strokeColor=none;verticalAlign=bottom;" parent="1" vertex="1">
          <mxGeometry x="230" y="1040" width="600" height="140" as="geometry" />
        </mxCell>
        <mxCell id="ElLBElQEtRB0eHO3DKkr-3" value="&lt;font style=&quot;font-size: 35px&quot;&gt;接口自动化测试平台&lt;/font&gt;" style="text;html=1;strokeColor=none;fillColor=none;align=center;verticalAlign=middle;whiteSpace=wrap;rounded=0;" parent="1" vertex="1">
          <mxGeometry x="252" y="227" width="660" height="80" as="geometry" />
        </mxCell>
        <mxCell id="ElLBElQEtRB0eHO3DKkr-4" value="&lt;font style=&quot;font-size: 29px&quot;&gt;Web端&lt;/font&gt;" style="text;html=1;strokeColor=none;fillColor=none;align=center;verticalAlign=middle;whiteSpace=wrap;rounded=0;" parent="1" vertex="1">
          <mxGeometry x="80" y="410" width="120" height="30" as="geometry" />
        </mxCell>
        <mxCell id="ElLBElQEtRB0eHO3DKkr-5" value="&lt;span style=&quot;font-size: 29px&quot;&gt;服务端&lt;/span&gt;" style="text;html=1;strokeColor=none;fillColor=none;align=center;verticalAlign=middle;whiteSpace=wrap;rounded=0;" parent="1" vertex="1">
          <mxGeometry x="90" y="850" width="120" height="30" as="geometry" />
        </mxCell>
        <mxCell id="ElLBElQEtRB0eHO3DKkr-7" value="&lt;font style=&quot;font-size: 29px&quot;&gt;基础设施&lt;/font&gt;" style="text;html=1;strokeColor=none;fillColor=none;align=center;verticalAlign=middle;whiteSpace=wrap;rounded=0;" parent="1" vertex="1">
          <mxGeometry x="90" y="1095" width="120" height="30" as="geometry" />
        </mxCell>
        <mxCell id="ElLBElQEtRB0eHO3DKkr-8" value="&lt;font style=&quot;font-size: 28px&quot;&gt;接口管理&lt;/font&gt;" style="shape=ext;double=1;rounded=1;whiteSpace=wrap;html=1;" parent="1" vertex="1">
          <mxGeometry x="672" y="350" width="120" height="80" as="geometry" />
        </mxCell>
        <mxCell id="ElLBElQEtRB0eHO3DKkr-9" value="&lt;font style=&quot;font-size: 28px&quot;&gt;用例编写&lt;/font&gt;" style="shape=ext;double=1;rounded=1;whiteSpace=wrap;html=1;" parent="1" vertex="1">
          <mxGeometry x="280" y="350" width="120" height="80" as="geometry" />
        </mxCell>
        <mxCell id="ElLBElQEtRB0eHO3DKkr-10" value="&lt;font style=&quot;font-size: 28px&quot;&gt;测试数据&lt;/font&gt;" style="shape=ext;double=1;rounded=1;whiteSpace=wrap;html=1;" parent="1" vertex="1">
          <mxGeometry x="280" y="550" width="120" height="80" as="geometry" />
        </mxCell>
        <mxCell id="ElLBElQEtRB0eHO3DKkr-11" value="&lt;font style=&quot;font-size: 28px&quot;&gt;测试计划&lt;/font&gt;" style="shape=ext;double=1;rounded=1;whiteSpace=wrap;html=1;" parent="1" vertex="1">
          <mxGeometry x="480" y="350" width="120" height="80" as="geometry" />
        </mxCell>
        <mxCell id="ElLBElQEtRB0eHO3DKkr-12" value="&lt;span style=&quot;font-size: 28px&quot;&gt;测试方法&lt;/span&gt;" style="shape=ext;double=1;rounded=1;whiteSpace=wrap;html=1;" parent="1" vertex="1">
          <mxGeometry x="280" y="650" width="120" height="80" as="geometry" />
        </mxCell>
        <mxCell id="ElLBElQEtRB0eHO3DKkr-13" value="&lt;font style=&quot;font-size: 28px&quot;&gt;接口导入&lt;/font&gt;" style="shape=ext;double=1;rounded=1;whiteSpace=wrap;html=1;" parent="1" vertex="1">
          <mxGeometry x="672" y="450" width="120" height="80" as="geometry" />
        </mxCell>
        <mxCell id="ElLBElQEtRB0eHO3DKkr-14" value="&lt;font style=&quot;font-size: 28px&quot;&gt;用例导入&lt;/font&gt;" style="shape=ext;double=1;rounded=1;whiteSpace=wrap;html=1;" parent="1" vertex="1">
          <mxGeometry x="280" y="450" width="120" height="80" as="geometry" />
        </mxCell>
        <mxCell id="ElLBElQEtRB0eHO3DKkr-15" value="&lt;font style=&quot;font-size: 28px&quot;&gt;接口Mock&lt;/font&gt;" style="shape=ext;double=1;rounded=1;whiteSpace=wrap;html=1;" parent="1" vertex="1">
          <mxGeometry x="672" y="550" width="120" height="80" as="geometry" />
        </mxCell>
        <mxCell id="ElLBElQEtRB0eHO3DKkr-16" value="&lt;span style=&quot;font-size: 28px&quot;&gt;环境数据&lt;/span&gt;" style="shape=ext;double=1;rounded=1;whiteSpace=wrap;html=1;" parent="1" vertex="1">
          <mxGeometry x="480" y="450" width="120" height="80" as="geometry" />
        </mxCell>
        <mxCell id="ElLBElQEtRB0eHO3DKkr-17" value="&lt;font style=&quot;font-size: 28px&quot;&gt;测试报告&lt;/font&gt;" style="shape=ext;double=1;rounded=1;whiteSpace=wrap;html=1;" parent="1" vertex="1">
          <mxGeometry x="480" y="650" width="120" height="80" as="geometry" />
        </mxCell>
        <mxCell id="ElLBElQEtRB0eHO3DKkr-19" value="&lt;font style=&quot;font-size: 28px&quot;&gt;测试执行&lt;/font&gt;" style="shape=ext;double=1;rounded=1;whiteSpace=wrap;html=1;" parent="1" vertex="1">
          <mxGeometry x="480" y="550" width="120" height="80" as="geometry" />
        </mxCell>
        <mxCell id="ElLBElQEtRB0eHO3DKkr-20" value="&lt;font style=&quot;font-size: 28px&quot;&gt;覆盖统计&lt;/font&gt;" style="shape=ext;double=1;rounded=1;whiteSpace=wrap;html=1;" parent="1" vertex="1">
          <mxGeometry x="672" y="650" width="120" height="80" as="geometry" />
        </mxCell>
        <mxCell id="ElLBElQEtRB0eHO3DKkr-21" value="&lt;span style=&quot;font-size: 28px&quot;&gt;测试数据&lt;br&gt;&lt;/span&gt;" style="shape=ext;double=1;rounded=1;whiteSpace=wrap;html=1;" parent="1" vertex="1">
          <mxGeometry x="252" y="910" width="120" height="80" as="geometry" />
        </mxCell>
        <mxCell id="ElLBElQEtRB0eHO3DKkr-22" value="&lt;span style=&quot;font-size: 28px&quot;&gt;测试执行&lt;/span&gt;" style="shape=ext;double=1;rounded=1;whiteSpace=wrap;html=1;" parent="1" vertex="1">
          <mxGeometry x="550" y="800" width="120" height="80" as="geometry" />
        </mxCell>
        <mxCell id="ElLBElQEtRB0eHO3DKkr-23" value="&lt;span style=&quot;font-size: 28px&quot;&gt;执行节点管理&lt;/span&gt;" style="shape=ext;double=1;rounded=1;whiteSpace=wrap;html=1;" parent="1" vertex="1">
          <mxGeometry x="550" y="910" width="120" height="80" as="geometry" />
        </mxCell>
        <mxCell id="ElLBElQEtRB0eHO3DKkr-25" value="&lt;span style=&quot;font-size: 28px&quot;&gt;测试用例&lt;br&gt;&lt;/span&gt;" style="shape=ext;double=1;rounded=1;whiteSpace=wrap;html=1;" parent="1" vertex="1">
          <mxGeometry x="252" y="800" width="120" height="80" as="geometry" />
        </mxCell>
        <mxCell id="ElLBElQEtRB0eHO3DKkr-26" value="&lt;span style=&quot;font-size: 28px&quot;&gt;持续集成&lt;/span&gt;" style="shape=ext;double=1;rounded=1;whiteSpace=wrap;html=1;" parent="1" vertex="1">
          <mxGeometry x="690" y="800" width="120" height="80" as="geometry" />
        </mxCell>
        <mxCell id="ElLBElQEtRB0eHO3DKkr-27" value="&lt;span style=&quot;font-size: 28px&quot;&gt;测试报表&lt;/span&gt;" style="shape=ext;double=1;rounded=1;whiteSpace=wrap;html=1;" parent="1" vertex="1">
          <mxGeometry x="400" y="910" width="120" height="80" as="geometry" />
        </mxCell>
        <mxCell id="ElLBElQEtRB0eHO3DKkr-28" value="&lt;span style=&quot;font-size: 28px&quot;&gt;用例生成&lt;/span&gt;" style="shape=ext;double=1;rounded=1;whiteSpace=wrap;html=1;" parent="1" vertex="1">
          <mxGeometry x="400" y="800" width="120" height="80" as="geometry" />
        </mxCell>
        <mxCell id="ElLBElQEtRB0eHO3DKkr-29" value="&lt;span style=&quot;font-size: 28px&quot;&gt;DB&lt;/span&gt;" style="shape=ext;double=1;rounded=1;whiteSpace=wrap;html=1;" parent="1" vertex="1">
          <mxGeometry x="252" y="1070" width="120" height="80" as="geometry" />
        </mxCell>
        <mxCell id="ElLBElQEtRB0eHO3DKkr-30" value="&lt;span style=&quot;font-size: 28px&quot;&gt;Git&lt;/span&gt;" style="shape=ext;double=1;rounded=1;whiteSpace=wrap;html=1;" parent="1" vertex="1">
          <mxGeometry x="400" y="1070" width="120" height="80" as="geometry" />
        </mxCell>
        <mxCell id="ElLBElQEtRB0eHO3DKkr-31" value="&lt;span style=&quot;font-size: 28px&quot;&gt;Docker&lt;/span&gt;" style="shape=ext;double=1;rounded=1;whiteSpace=wrap;html=1;" parent="1" vertex="1">
          <mxGeometry x="552" y="1070" width="120" height="80" as="geometry" />
        </mxCell>
        <mxCell id="ElLBElQEtRB0eHO3DKkr-32" value="&lt;span style=&quot;font-size: 28px&quot;&gt;执行引擎&lt;/span&gt;" style="shape=ext;double=1;rounded=1;whiteSpace=wrap;html=1;" parent="1" vertex="1">
          <mxGeometry x="690" y="1070" width="120" height="80" as="geometry" />
        </mxCell>
      </root>
    </mxGraphModel>
  </diagram>
</mxfile>
